# xmcd
#
# Track frame offsets:
#	150
#	23849
#	40229
#	67257
#	94402
#	105442
#	121377
#	133445
#	151865
#	177319
#	193846
#
# Disc length: 2889 seconds
#
# Revision: 1
# Processed by: cddbd v1.5PL3 Copyright (c) Steve Scherf et al.
# Submitted via: audiograbber 1.82.02
#
DISCID=9e0b470b
DTITLE=Rhinos - Rhinos
DYEAR=2003
DGENRE=Blues
TTITLE0=Fishtalk
TTITLE1=Empty Lives (Bartender's Song)
TTITLE2=Nowhere Else To Go
TTITLE3=Angel From Montgomery
TTITLE4=Moneygoround
TTITLE5=Get Rhytm
TTITLE6=Gasoline Alley
TTITLE7=Maggie's Farm
TTITLE8=Cold Cold Ground
TTITLE9=Working Class Hero
TTITLE10=Only Thing Growing
EXTD=
EXTT0=
EXTT1=
EXTT2=
EXTT3=
EXTT4=
EXTT5=
EXTT6=
EXTT7=
EXTT8=
EXTT9=
EXTT10=
PLAYORDER=
